<svg width="42" height="42" viewBox="0 0 42 42" fill="none" xmlns="http://www.w3.org/2000/svg">
<path d="M33.25 23.7755V17.5C33.25 11.8703 29.4262 7.12775 24.2463 5.7015C23.7335 4.41 22.4805 3.5 21 3.5C19.5195 3.5 18.2665 4.41 17.7538 5.7015C12.5738 7.1295 8.75 11.8703 8.75 17.5V23.7755L5.76275 26.7628C5.43375 27.09 5.25 27.5345 5.25 28V31.5C5.25 32.4678 6.03225 33.25 7 33.25H35C35.9678 33.25 36.75 32.4678 36.75 31.5V28C36.75 27.5345 36.5663 27.09 36.2373 26.7628L33.25 23.7755ZM33.25 29.75H8.75V28.7245L11.7372 25.7373C12.0662 25.41 12.25 24.9655 12.25 24.5V17.5C12.25 12.6753 16.1753 8.75 21 8.75C25.8247 8.75 29.75 12.6753 29.75 17.5V24.5C29.75 24.9655 29.9337 25.41 30.2627 25.7373L33.25 28.7245V29.75ZM21 38.5C23.2943 38.5 25.2122 37.0405 25.9315 35H16.0685C16.7878 37.0405 18.7058 38.5 21 38.5Z" fill="#484848"/>
</svg>
