<svg width="25" height="25" viewBox="0 0 25 25" fill="none" xmlns="http://www.w3.org/2000/svg">
<path d="M3.12501 13.5417H4.16668V15.625V20.8333C4.16668 21.9823 5.10105 22.9167 6.25001 22.9167H9.37501H15.625H18.75C19.899 22.9167 20.8333 21.9823 20.8333 20.8333V15.625V13.5417H21.875C22.2958 13.5417 22.6771 13.2875 22.8375 12.899C22.999 12.5094 22.9094 12.0615 22.6115 11.7635L13.2365 2.38854C12.8292 1.98125 12.1708 1.98125 11.7636 2.38854L2.38855 11.7635C2.09063 12.0615 2.00105 12.5094 2.16251 12.899C2.32293 13.2875 2.70418 13.5417 3.12501 13.5417ZM10.4167 20.8333V15.625H14.5833V20.8333H10.4167ZM12.5 4.59791L18.75 10.8479V15.625L18.751 20.8333H16.6667V15.625C16.6667 14.476 15.7323 13.5417 14.5833 13.5417H10.4167C9.26772 13.5417 8.33334 14.476 8.33334 15.625V20.8333H6.25001V15.625V12.5V10.8479L12.5 4.59791Z" fill="#484848"/>
</svg>
