<svg width="27" height="27" viewBox="0 0 27 27" fill="none" xmlns="http://www.w3.org/2000/svg">
<path d="M21.7333 9.33331H15.6537L16.8703 5.68573C17.0891 5.02706 16.9786 4.2969 16.5723 3.73356C16.1661 3.17023 15.5074 2.83331 14.813 2.83331H13.0667C12.7449 2.83331 12.4405 2.97631 12.2336 3.22331L7.14192 9.33331H4.4C3.20509 9.33331 2.23334 10.3051 2.23334 11.5V21.25C2.23334 22.4449 3.20509 23.4166 4.4 23.4166H7.65H18.8159C19.714 23.4166 20.5287 22.8522 20.845 22.0105L23.8318 14.0469C23.8773 13.9256 23.9 13.7966 23.9 13.6666V11.5C23.9 10.3051 22.9283 9.33331 21.7333 9.33331ZM4.4 11.5H6.56667V21.25H4.4V11.5ZM21.7333 13.4706L18.8159 21.25H8.73334V10.8088L13.5737 4.99998H14.8152L13.123 10.0732C13.0114 10.4036 13.0678 10.7666 13.2714 11.0493C13.4751 11.3331 13.8023 11.5 14.15 11.5H21.7333V13.4706Z" fill="white"/>
</svg>
