<svg width="26" height="26" viewBox="0 0 26 26" fill="none" xmlns="http://www.w3.org/2000/svg">
<path d="M5.41667 22.75H20.5833C21.7783 22.75 22.75 21.7783 22.75 20.5833V8.66667C22.75 8.37958 22.6363 8.10333 22.4326 7.90075L18.0993 3.56742C17.8967 3.36375 17.6215 3.25 17.3333 3.25H5.41667C4.22175 3.25 3.25 4.22175 3.25 5.41667V20.5833C3.25 21.7783 4.22175 22.75 5.41667 22.75ZM16.25 20.5833H9.75V15.1667H16.25V20.5833ZM14.0833 7.58333H11.9167V5.41667H14.0833V7.58333ZM5.41667 5.41667H7.58333V9.75H9.75H11.9167H14.0833H15.1667H16.25V5.41667H16.8848L20.5833 9.11517L20.5844 20.5833H18.4167V15.1667C18.4167 13.9718 17.4449 13 16.25 13H9.75C8.55508 13 7.58333 13.9718 7.58333 15.1667V20.5833H5.41667V5.41667Z" fill="white"/>
</svg>
