<svg width="26" height="24" viewBox="0 0 26 24" fill="none" xmlns="http://www.w3.org/2000/svg">
<path fill-rule="evenodd" clip-rule="evenodd" d="M10.8738 18C6.2625 18 2.52429 14.4183 2.52429 10C2.52429 5.58172 6.2625 2 10.8738 2C15.4851 2 19.2233 5.58172 19.2233 10C19.2233 11.8487 18.5688 13.551 17.4698 14.9056L23.0924 20.2929L21.6164 21.7071L15.9938 16.3199C14.5799 17.3729 12.8033 18 10.8738 18ZM17.1359 10C17.1359 13.3137 14.3323 16 10.8738 16C7.41532 16 4.61167 13.3137 4.61167 10C4.61167 6.68629 7.41532 4 10.8738 4C14.3323 4 17.1359 6.68629 17.1359 10Z" fill="#4470F6"/>
</svg>
